# xmcd
#
# Track frame offsets: 
#        150
#        11701
#        21107
#        35259
#        46251
#        55028
#        67922
#        77565
#        86940
#        99518
#        115327
#        125324
#        138249
#        149557
#        159598
#        169604
#        182325
#        189819
#        201827
#        210280
#        225624
#        233755
#        245955
#        256258
#        266561
#
# Disc length: 3709 seconds
#
# Revision: 0
# Processed by: cddbd v1.5.2PL0 Copyright (c) Steve Scherf et al.
# Submitted via: ExactAudioCopy v1.3
#
DISCID=4a0e7b19
DTITLE=Don Reno and Bill Harrell - CD4_Reno and Harrell
DYEAR=2010
DGENRE=Bluegrass
TTITLE0=Oak Grove Church
TTITLE1=My Reedeemer Lives Again
TTITLE2=Another Daddy Gone Wrong
TTITLE3=When They Crucufied Jesus
TTITLE4=My God's Highway
TTITLE5=I'm Using My Bible For Road Map
TTITLE6=I Want To Be A Christian Soldier
TTITLE7=If I Never Wake Again
TTITLE8=Anchored In Jesus
TTITLE9=A Pretty Wreath For Mother's Grave
TTITLE10=For The Bible Tells Me So
TTITLE11=The Night I Got Saved
TTITLE12=Sweet Miss Sarah Jane
TTITLE13=1500 Miles Away From Home
TTITLE14=Bluegrass In My Mind
TTITLE15=A Gift Of Love
TTITLE16=Down Yonder
TTITLE17=Bye Bye Blues
TTITLE18=Truck Stop Boogie
TTITLE19=Where There's Smoke Ther's Fire
TTITLE20=Don't You Know I Love You Charlie Brown
TTITLE21=I Couldn't Win
TTITLE22=I'm Afraid My Darling's Gone
TTITLE23=I'll Fly Away
TTITLE24=Maiden's Prayer
EXTD=
EXTT0=
EXTT1=
EXTT2=
EXTT3=
EXTT4=
EXTT5=
EXTT6=
EXTT7=
EXTT8=
EXTT9=
EXTT10=
EXTT11=
EXTT12=
EXTT13=
EXTT14=
EXTT15=
EXTT16=
EXTT17=
EXTT18=
EXTT19=
EXTT20=
EXTT21=
EXTT22=
EXTT23=
EXTT24=
PLAYORDER=
